<svg height="512pt" viewBox="-47 0 512 512.001" width="512pt" xmlns="http://www.w3.org/2000/svg"><path d="m86.078125 48.167969c-34.164063 0-63.378906 25.53125-67.964844 59.382812l-6.042969 44.644531h393.546876l-6.042969-44.644531c-4.582031-33.851562-33.800781-59.382812-67.960938-59.382812h-68.082031c-1.40625-10.976563-6.046875-20.949219-12.933594-28.945313-10.136718-11.757812-25.125-19.222656-41.828125-19.222656-16.707031 0-31.695312 7.464844-41.832031 19.222656-6.886719 7.992188-11.527344 17.96875-12.933594 28.945313zm0 0"/><path d="m370.28125 212.613281h-5.3125l1.753906-31.476562h-315.753906l1.75 31.476562h-5.386719c-26.097656 0-47.332031 21.230469-47.332031 47.332031 0 26.097657 21.234375 47.332032 47.332031 47.332032h10.660157l11.394531 204.722656h278.917969l11.394531-204.722656h10.585937c26.097656 0 47.332032-21.234375 47.332032-47.332032 0-26.101562-21.234376-47.332031-47.335938-47.332031zm-322.949219 64.621094c-9.53125 0-17.289062-7.757813-17.289062-17.289063 0-9.535156 7.757812-17.289062 17.289062-17.289062h7.058594l1.925781 34.578125zm111.09375 194.609375h-30.042969v-250.351562h30.042969zm64.628907 0h-30.042969v-250.351562h30.042969zm66.097656 0h-30.042969v-250.351562h30.042969zm81.128906-194.609375h-8.910156l1.925781-34.578125h6.984375c9.535156 0 17.292969 7.753906 17.292969 17.289062 0 9.53125-7.757813 17.289063-17.292969 17.289063zm0 0"/></svg>